<?xml version="1.0" standalone="no"?><!DOCTYPE svg PUBLIC "-//W3C//DTD SVG 1.1//EN" "http://www.w3.org/Graphics/SVG/1.1/DTD/svg11.dtd"><svg t="1586632136329" class="icon" viewBox="0 0 1024 1024" version="1.1" xmlns="http://www.w3.org/2000/svg" p-id="586" xmlns:xlink="http://www.w3.org/1999/xlink" width="200" height="200"><defs><style type="text/css">:not([class*="icon"]):not(.fa):not(.fas):not(i) { font-family: "PingFang SC", "Heiti SC", myfont, "Microsoft YaHei", "Source Han Sans SC", "Noto Sans CJK SC", "HanHei SC", sans-serif, icomoon, Icons, brand-icons, FontAwesome, "Material Icons", "Material Icons Extended", "Glyphicons Halflings" !important; }
* { font-family: "PingFang SC", "Microsoft YaHei"; text-shadow: rgb(195, 195, 195) 1px 1px 3px !important; font-weight: bold !important; }
</style></defs><path d="M300.304 490.897c-0.487 0.973-1.338 1.825-1.703 2.798-8.514 17.75800001-5.717 39.651 9.365 53.882L651.692 872.693c18.73 17.758 48.287 16.906 66.045-1.825 17.757-18.73 16.906-48.287-1.825-66.045l-308.453-291.79 307.237-296.046c18.61-17.88 19.096-47.435 1.216-66.045-9.122-9.487-21.407-14.352-33.56999999-14.352-11.676 0-23.35300001 4.379-32.35300001 13.136l-340.563 328.279c-0.608 0.608-0.852 1.58-1.581 2.189-0.487 0.486-0.973 0.851-1.582 1.338-2.797 2.797-4.135 6.20299999-5.96 9.365z m0 0" p-id="587"></path></svg>