<?xml version="1.0" standalone="no"?><!DOCTYPE svg PUBLIC "-//W3C//DTD SVG 1.1//EN" "http://www.w3.org/Graphics/SVG/1.1/DTD/svg11.dtd"><svg xmlns:xlink="http://www.w3.org/1999/xlink" t="1584600510554" class="icon" viewBox="0 0 1024 1024" version="1.1" xmlns="http://www.w3.org/2000/svg" p-id="3475" width="200" height="200"><defs><style type="text/css">:not([class*="icon"]):not(.fa):not(.fas):not(i) { font-family: "PingFang SC", "Heiti SC", myfont, "Microsoft YaHei", "Source Han Sans SC", "Noto Sans CJK SC", "HanHei SC", sans-serif, icomoon, Icons, brand-icons, FontAwesome, "Material Icons", "Material Icons Extended", "Glyphicons Halflings" !important; }
* { font-family: "PingFang SC", "Microsoft YaHei"; font-weight: bold !important; }
</style></defs><path d="M917 872H107c-24.9 0-45 20.1-45 45s20.1 45 45 45h810c24.9 0 45-20.1 45-45s-20.1-45-45-45zM182 782c66.3 0 120-53.7 120-120V482c0-66.3-53.7-120-120-120S62 415.7 62 482v180c0 66.3 53.7 120 120 120z m-30-300c0-16.6 13.4-30 30-30s30 13.4 30 30v180c0 16.6-13.4 30-30 30s-30-13.4-30-30V482zM512 782c66.3 0 120-53.7 120-120V362c0-66.3-53.7-120-120-120s-120 53.7-120 120v300c0 66.3 53.7 120 120 120z m-30-420c0-16.6 13.4-30 30-30s30 13.4 30 30v300c0 16.6-13.4 30-30 30s-30-13.4-30-30V362zM842 62c-66.3 0-120 53.7-120 120v480c0 66.3 53.7 120 120 120s120-53.7 120-120V182c0-66.3-53.7-120-120-120z m30 600c0 16.6-13.4 30-30 30s-30-13.4-30-30V182c0-16.6 13.4-30 30-30s30 13.4 30 30v480z" fill="" p-id="3476"></path></svg>